<svg width="565" height="305" viewBox="0 0 565 305" fill="none" xmlns="http://www.w3.org/2000/svg">
<path d="M6.6 95.4C5.8 95.4 4.93333 95.0667 4 94.4C1.6 92.1333 0.4 89.2667 0.4 85.8C0.4 81.6667 2.13333 77.4 5.6 73C9.2 68.4667 14.4667 64.8667 21.4 62.2C29.2667 59.1333 37.8 56.6 47 54.6C56.2 52.4667 65.6 50.9333 75.2 50C84.9333 48.9333 94.2667 48.4 103.2 48.4C106.533 48.4 109.8 48.4667 113 48.6C116.2 48.7333 119.267 48.9333 122.2 49.2C141.8 51.0667 156.733 54.8 167 60.4C177.4 66 182.6 71.8667 182.6 78C182.6 80.5333 181.733 82.9333 180 85.2C179.2 86.2667 178 87.3333 176.4 88.4C174.933 89.3333 173.733 89.8 172.8 89.8C172 89.8 171.6 89.4 171.6 88.6C171.6 87.6667 172.267 86.1333 173.6 84C175.2 81.6 176 79.4 176 77.4C176 73.5333 173.533 70.5333 168.6 68.4C163.8 66.1333 157.467 64.6 149.6 63.8C141.867 62.8667 133.533 62.4 124.6 62.4C118.467 62.4 112.267 62.6 106 63C99.7333 63.2667 93.8667 63.6667 88.4 64.2C85.8667 64.4667 82 64.9333 76.8 65.6C71.7333 66.2667 66 67.1333 59.6 68.2C53.2 69.1333 46.7333 70.3333 40.2 71.8C33.6667 73.1333 27.6667 74.6667 22.2 76.4C16.7333 78.1333 12.2667 80.0667 8.8 82.2C5.46667 84.2 3.8 86.4667 3.8 89C3.8 90.7333 4.8 92.5333 6.8 94.4C7.06667 94.6667 7.2 94.8667 7.2 95C7.2 95.2667 7 95.4 6.6 95.4ZM61.6 196.2C54.6667 195.667 49.9333 193.467 47.4 189.6C44.8667 185.733 43.6 181.2 43.6 176C43.6 171.6 44.2 167.067 45.4 162.4C46.6 157.733 47.8667 153.467 49.2 149.6C50.5333 145.867 52.2667 141.933 54.4 137.8C56.6667 133.667 59.6667 128.733 63.4 123C67.2667 117.267 72.2667 110.067 78.4 101.4C84.5333 92.7333 92.1333 82 101.2 69.2C102.8 67.2 104.2 66.2 105.4 66.2C106.2 66.2 106.733 66.5333 107 67.2C107.4 67.7333 107.467 68.2667 107.2 68.8C94.6667 87.3333 85 103.267 78.2 116.6C71.5333 129.8 66.6 141.067 63.4 150.4C62.7333 152.267 61.8667 154.933 60.8 158.4C59.8667 161.733 59 165.4 58.2 169.4C57.4 173.267 57 176.933 57 180.4C57 184.133 57.6667 187.333 59 190C60.3333 192.667 62.6667 194 66 194C68 194 69.8667 193.333 71.6 192C72.2667 191.6 72.6667 191.4 72.8 191.4C73.0667 191.4 73.2 191.533 73.2 191.8C73.2 192.2 72.8 192.733 72 193.4C69.4667 195.667 66 196.6 61.6 196.2ZM175.923 197.6C175.257 197.6 175.323 197 176.123 195.8C177.057 194.6 179.257 192.467 182.723 189.4C188.99 183.8 193.59 177.933 196.523 171.8C199.59 165.667 201.123 159.8 201.123 154.2C201.123 145.8 197.923 138.667 191.523 132.8C185.257 126.8 176.19 123.8 164.323 123.8C156.99 123.8 148.723 125.2 139.523 128C134.19 129.6 130.59 130.4 128.723 130.4C127.657 130.4 127.123 130.133 127.123 129.6C127.123 129.2 127.857 128.267 129.323 126.8C132.657 123.733 137.523 119.733 143.923 114.8C150.323 109.733 157.657 104.267 165.923 98.4C174.323 92.5333 183.057 86.6667 192.123 80.8C201.323 74.8 210.323 69.2667 219.123 64.2C227.923 59.1333 235.99 55 243.323 51.8C250.79 48.4667 256.923 46.5333 261.723 46H262.723C264.19 46 264.923 46.4667 264.923 47.4C264.923 48.8667 263.857 50.0667 261.723 51C249.99 55.1333 238.19 60.3333 226.323 66.6C214.457 72.8667 203.057 79.6 192.123 86.8C181.19 93.8667 171.19 100.8 162.123 107.6C153.057 114.267 145.323 120 138.923 124.8C151.723 120.667 163.457 118.6 174.123 118.6C183.857 118.6 192.19 120.067 199.123 123C206.057 125.933 211.39 129.867 215.123 134.8C218.857 139.6 220.723 145 220.723 151C220.723 158.333 217.59 165.933 211.323 173.8C205.19 181.667 195.323 188.867 181.723 195.4C180.523 195.933 179.39 196.4 178.323 196.8C177.257 197.333 176.457 197.6 175.923 197.6ZM85.5234 197C84.9901 197 84.7234 196.333 84.7234 195C84.7234 194.333 84.7901 193.533 84.9234 192.6C85.0568 191.8 85.3901 190.733 85.9234 189.4C86.9901 186.333 88.8568 181.933 91.5234 176.2C94.1901 170.467 97.3234 163.867 100.923 156.4C104.657 148.933 108.657 141.133 112.923 133C117.323 124.867 121.79 116.8 126.323 108.8C130.857 100.8 135.19 93.4 139.323 86.6C143.59 79.6667 147.39 73.8 150.723 69C154.19 64.2 156.99 60.9333 159.123 59.2C160.457 58.1333 162.39 57.6 164.923 57.6C166.39 57.6 167.723 57.8667 168.923 58.4C170.123 58.9333 170.723 59.8667 170.723 61.2C170.723 62.4 170.057 63.8667 168.723 65.6C165.523 69.7333 161.857 74.7333 157.723 80.6C153.723 86.3333 149.523 92.4 145.123 98.8C140.857 105.2 136.59 111.6 132.323 118C128.19 124.4 124.39 130.333 120.923 135.8C116.657 142.467 112.257 149.6 107.723 157.2C103.323 164.667 99.2568 171.733 95.5234 178.4C91.9234 185.067 89.1901 190.533 87.3234 194.8C86.7901 196.267 86.1901 197 85.5234 197Z" fill="#D53F8C"/>
</svg>
